<svg width="43" height="47" viewBox="0 0 43 47" fill="none" xmlns="http://www.w3.org/2000/svg">
<path d="M37.4987 22.668C39.9846 22.668 41.9998 20.6762 41.9998 18.2192C41.9998 15.7623 39.9846 13.7705 37.4987 13.7705C35.0129 13.7705 32.9977 15.7623 32.9977 18.2192C32.9977 20.6762 35.0129 22.668 37.4987 22.668Z" stroke="#22222C" stroke-width="2" stroke-miterlimit="10"/>
<path d="M33.9979 40.4631L30.9972 23.6567L28.9967 14.7592L25.996 0.918701" stroke="#22222C" stroke-width="2" stroke-miterlimit="10" stroke-linejoin="round"/>
<path d="M29.4969 40.4632L24.9958 25.634H11.9928L10.2524 33.5429L6.99164 46.3948" stroke="#22222C" stroke-width="2" stroke-miterlimit="10" stroke-linejoin="round"/>
<path d="M0.990234 46.3947L2.9907 34.5313L4.05095 21.9661C4.53106 19.979 6.0214 18.3676 7.99186 17.725L22.9954 15.7478L21.9951 1.90723" stroke="#22222C" stroke-width="2" stroke-miterlimit="10" stroke-linejoin="round"/>
<path d="M16.994 25.634L22.9954 46.3948" stroke="#22222C" stroke-width="2" stroke-miterlimit="10" stroke-linejoin="round"/>
<path d="M12.993 34.5315L16.994 46.3948" stroke="#22222C" stroke-width="2" stroke-miterlimit="10" stroke-linejoin="round"/>
</svg>
